<svg width="153" height="164" viewBox="0 0 153 164" fill="none" xmlns="http://www.w3.org/2000/svg">
<path d="M11.5586 12.8389V14.7081H0.837891V12.8389H11.5586ZM7.19727 8.2735V19.6602H5.20996V8.2735H7.19727Z" fill="#FF7152"/>
<path d="M11.5586 47.357V49.2261H0.837891V47.357H11.5586ZM7.19727 42.7916V54.1783H5.20996V42.7916H7.19727Z" fill="#E5E5E5"/>
<path d="M11.5586 81.8751V83.7443H0.837891V81.8751H11.5586ZM7.19727 77.3097V88.6964H5.20996V77.3097H7.19727Z" fill="#E5E5E5"/>
<path d="M46.5586 12.8389V14.7081H35.8379V12.8389H46.5586ZM42.1973 8.2735V19.6602H40.21V8.2735H42.1973Z" fill="#E5E5E5"/>
<path d="M46.5586 47.357V49.2261H35.8379V47.357H46.5586ZM42.1973 42.7916V54.1783H40.21V42.7916H42.1973Z" fill="#E5E5E5"/>
<path d="M46.5586 81.8751V83.7443H35.8379V81.8751H46.5586ZM42.1973 77.3097V88.6964H40.21V77.3097H42.1973Z" fill="#E5E5E5"/>
<path d="M46.5586 116.393V118.262H35.8379V116.393H46.5586ZM42.1973 111.828V123.214H40.21V111.828H42.1973Z" fill="#E5E5E5"/>
<path d="M81.5586 12.8389V14.7081H70.8379V12.8389H81.5586ZM77.1973 8.2735V19.6602H75.21V8.2735H77.1973Z" fill="#E5E5E5"/>
<path d="M81.5586 47.357V49.2261H70.8379V47.357H81.5586ZM77.1973 42.7916V54.1783H75.21V42.7916H77.1973Z" fill="#E5E5E5"/>
<path d="M81.5586 81.8751V83.7443H70.8379V81.8751H81.5586ZM77.1973 77.3097V88.6964H75.21V77.3097H77.1973Z" fill="#6246E5"/>
<path d="M81.5586 116.393V118.262H70.8379V116.393H81.5586ZM77.1973 111.828V123.214H75.21V111.828H77.1973Z" fill="#E5E5E5"/>
<path d="M81.5586 150.911V152.78H70.8379V150.911H81.5586ZM77.1973 146.346V157.733H75.21V146.346H77.1973Z" fill="#E5E5E5"/>
<path d="M116.559 12.8389V14.7081H105.838V12.8389H116.559ZM112.197 8.2735V19.6602H110.21V8.2735H112.197Z" fill="#E5E5E5"/>
<path d="M116.559 47.357V49.2261H105.838V47.357H116.559ZM112.197 42.7916V54.1783H110.21V42.7916H112.197Z" fill="#E5E5E5"/>
<path d="M116.559 81.8751V83.7443H105.838V81.8751H116.559ZM112.197 77.3097V88.6964H110.21V77.3097H112.197Z" fill="#E5E5E5"/>
<path d="M116.559 116.393V118.262H105.838V116.393H116.559ZM112.197 111.828V123.214H110.21V111.828H112.197Z" fill="#E5E5E5"/>
<path d="M116.559 150.911V152.78H105.838V150.911H116.559ZM112.197 146.346V157.733H110.21V146.346H112.197Z" fill="#E5E5E5"/>
<path d="M151.559 12.8389V14.7081H140.838V12.8389H151.559ZM147.197 8.2735V19.6602H145.21V8.2735H147.197Z" fill="#E5E5E5"/>
<path d="M151.559 47.357V49.2261H140.838V47.357H151.559ZM147.197 42.7916V54.1783H145.21V42.7916H147.197Z" fill="#E5E5E5"/>
<path d="M151.559 81.8751V83.7443H140.838V81.8751H151.559ZM147.197 77.3097V88.6964H145.21V77.3097H147.197Z" fill="#E5E5E5"/>
<path d="M151.559 116.393V118.262H140.838V116.393H151.559ZM147.197 111.828V123.214H145.21V111.828H147.197Z" fill="#E5E5E5"/>
<path d="M151.559 150.911V152.78H140.838V150.911H151.559ZM147.197 146.346V157.733H145.21V146.346H147.197Z" fill="#E5E5E5"/>
</svg>
